<svg width="19" height="18" viewBox="0 0 19 18" fill="none" xmlns="http://www.w3.org/2000/svg">
<path d="M5.61364 0C2.5281 0 0 2.39504 0 5.31818V12.6818C0 15.605 2.5281 18 5.61364 18H13.3864C16.4719 18 19 15.605 19 12.6818V5.31818C19 2.39504 16.4719 0 13.3864 0H5.61364ZM5.61364 2H13.3864C16.0008 2 16.8636 3 17 5.31818V12.6818C16.5 15 15.5 16 13 16H5.61364C3.5 16 2.5 15 2 12.6818V5.5C2 2.5 4 2 5.61364 2ZM14.5 3C14.025 3 13.5 3.55 13.5 4C13.5 4.45 14.025 5 14.5 5C14.975 5 15.5 4.45 15.5 4C15.5 3.55 14.975 3 14.5 3ZM9.5 4.5C6.88946 4.5 4.75 6.52686 4.75 9C4.75 11.4731 6.88946 13.5 9.5 13.5C12.1105 13.5 14.25 11.4731 14.25 9C14.25 6.52686 12.1105 4.5 9.5 4.5ZM9.5 5.5C11.6395 5.5 13 6.97314 13 9C13 11.0269 11.6395 12.5 9.5 12.5C7.36054 12.5 6 11.0269 6 9C6 6.97314 7.36054 5.5 9.5 5.5Z" fill="#CDCDCD"/>
</svg>
